<?xml version="1.0" encoding="UTF-8" standalone="no"?>
<!DOCTYPE svg PUBLIC "-//W3C//DTD SVG 1.1//EN" "http://www.w3.org/Graphics/SVG/1.1/DTD/svg11.dtd">
<svg width="100%" height="100%" viewBox="0 0 2363 2363" version="1.1" xmlns="http://www.w3.org/2000/svg" xmlns:xlink="http://www.w3.org/1999/xlink" xml:space="preserve" xmlns:serif="http://www.serif.com/" style="fill-rule:evenodd;clip-rule:evenodd;stroke-linejoin:round;stroke-miterlimit:2;">
    <g transform="matrix(1.57193,0,0,1.60172,-681.023,-720.42)">
        <ellipse cx="1181.1" cy="1181.1" rx="669.9" ry="667.424" style="fill:rgb(255,61,61);"/>
    </g>
    <g transform="matrix(1.70658,0,0,1.04733,-797.469,-74.0997)">
        <path d="M1648.55,1575.33C1648.25,1567.55 1642.93,1491.76 1642.93,1491.76L1636.92,1408.21L1633.4,1463.25L1627.2,1519.01L1618.64,1428.03L1615.25,1451.48L1608.66,1441.21L1610.32,1510.05L1604.49,1500.21L1596.68,1532.42L1588.79,1471.62L1586.05,1515.88L1579.29,1509.04L1576.45,1544.33L1565.94,1488.7L1561.53,1497.88L1555.53,1482.48L1548.61,1557.02L1537.87,1409.36L1532.74,1471.77L1530.73,1492.8L1519.43,1475.7L1512.99,1540.49L1504.38,1451.16L1498.13,1495.33L1488.49,1485.73L1489.79,1603.88L1478.5,1534.81L1471.01,1542.15L1470.43,1384.13L1463.34,1474.1L1461.79,1578.56L1446.6,1695.32L1435.78,1554.74L1432.18,1407.71L1427.06,1605.37L1417.23,1746.09C1417.23,1746.09 1410.3,1706.51 1407.73,1667.45C1397.76,1515.65 1385.39,1329.93 1385.39,1329.93L1379.9,1577.04L1375.91,1664.08L1357.12,1616.63L1339.86,1394.5L1330.59,1426.34L1320.48,1405.48L1318.38,1496.45L1305.42,1449.48L1299.95,1486.66C1297.29,1472.1 1293.99,1428.31 1291.98,1442.98C1284.52,1497.2 1286.27,1552.3 1283.42,1606.97L1272.22,1481.78L1262.95,1640.46L1254.73,1465.16L1244.09,1523.27L1235.76,1433.79L1229.5,1483.69L1220.76,1465.45L1218.57,1550.21L1208.45,1500.8L1200.01,1542.76L1189.9,1559.69L1184.24,1512.48L1174.54,1530.84L1170.03,1465.21L1163.88,1486.61L1154.73,1469.51L1146.58,1485.12L1140.51,1457.7L1136.11,1476.41L1125.7,1445.84L1114.82,1509.61L1096.67,1454.95L1089.16,1481.66L1070.85,1459.96L1070.14,1582.71L1060.79,1517.6L1052.95,1529.46L1053.42,1468.48L1045.03,1516.83L1033.32,1481.37L1025.1,1543.42L1018.44,1523.04L1009.69,1568.81L1001.19,1470.28L988.884,1487.69L980.195,1444.17L974.352,1480.71L967.816,1543.12L958.828,1517.43L950.326,1538.83L946.393,1470.21L936.768,1552.73L926.056,1481.37L918.266,1509.8L911.187,1494.42L905.7,1629.26L898.621,1501.57L889.767,1508.98L880.352,1464.16L874.804,1512.16L864.949,1500.81L864.568,1524.67L850.887,1497.37C846.173,1496.48 841.459,1495.59 836.746,1494.7L827.712,1437.06L822.063,1484.37L813.971,1470.35L807.741,1500.18L800.931,1459.05L794.241,1575.62L781.141,1484.49L776.433,1563.76L760.149,1463.2L756.263,1573.83L745.947,1529.9L738.435,1539.78L734.489,1484.31L724.314,1532.06L715.981,1484.06L705.605,1528.94L697.653,1498.59L692.826,1558.71L681.689,1522.95L671.954,1545C670.689,1474.66 674.417,1467.18 670.635,1471.67C663.31,1480.36 664.002,1481.78 663.24,1481.19L655.348,1457.15L650.24,1568.02L638.102,1443.05L633.255,1483.15L623.96,1468.56L612.703,1528.49L594.268,1440.69L567.475,1494.18L535.346,1310.06L529.524,1131.67L539.219,986.079L573.666,898.4L592.967,866.785L602.939,899.041L612.03,960.434L634.37,856.551L648.498,924.299L668.956,871.08L674.181,992.264L694.197,929.466L705.698,993.827L715.597,907.719L727.364,975.789L740.501,848.143L754.945,918.313L771.661,897.708L786.292,948.836L813.095,921.09L826.729,934.065L837.126,869.845L845.905,936.748L858.481,875.492L871.618,849.333L880.241,918.103L882.606,969.535L894.685,943.096L903.588,969.745L916.039,917.333L924.849,887.207L937.799,939.222L955.698,915.139L967.963,954.39L978.641,980.152L989.598,959.734L996.135,997.094L1011.26,948.626L1018.88,964.278L1024.23,833.148L1035.32,932.171L1043.12,950.253L1056.58,839.353L1065.92,949.097L1073.27,940.085L1077.32,977.595L1088.66,853.33L1095.41,925.907L1105.81,905.124L1108.91,949.699L1122.4,904.322L1127.75,916.99L1132.95,832.547L1139.3,957.519L1151.1,914.985L1160.74,946.349L1170.14,857.435L1179.23,882.382L1187.73,869.407L1192.53,937.726L1207.18,903.767L1218.77,893.505L1225.82,953.603L1232.12,888.492L1242.31,897.563L1247.47,874.621L1262.91,958.062L1270.81,884.836L1279.76,970.034L1290.7,973.042L1291.61,942.385L1298.7,914.69L1305.76,965.233L1312.35,941.135L1320.64,951.904L1320.29,892.998L1330.19,907.872L1340.58,820.695L1351.8,938.029L1362.22,1057.13L1374.6,901.085L1394.37,696.499L1406.1,910.816L1413.28,997.834L1416.77,876.187L1432.12,614.77L1443.39,717.299L1452.1,989.761L1463.69,850.392L1471.7,883.432L1479.06,864.052L1481.58,980.534L1489.98,909.595L1500.78,924.52L1510.64,904.937L1518.86,1020.69L1528.2,934.413L1538.14,894.122L1545.09,839.311L1553.03,973.173L1564.04,984.457L1566.87,898.639L1576.42,926.646L1585.28,906.672L1593.1,958.966L1599.79,906.141L1606.28,942.634L1616.28,866.912L1624.89,910.517L1629.79,949.073L1641.2,885.167L1653.31,942.103L1661.32,876.336L1670.07,955.919L1679.02,937.07L1685.23,973.298L1694.3,937.664L1701.59,948.966L1709.51,875.445L1720.19,945.229L1727.27,867.719L1739.75,892.044L1773.53,1197.98L1742.11,1504.86L1732.57,1465.53L1721.27,1486.49L1714.73,1461.03L1708.89,1481.11L1700.46,1466.45L1697.69,1483.66L1682.52,1441.8L1677.49,1555.97L1668.45,1533.99L1664.14,1547.43L1658.96,1452.2L1652.06,1462.6C1652.06,1462.6 1648.76,1562.05 1648.55,1575.33Z" style="fill:rgb(38,33,97);stroke:rgb(247,176,70);stroke-width:5.89px;"/>
    </g>
    <g id="Layer1">
    </g>
    <g transform="matrix(1.48504,0.0265825,-0.0200701,1.12122,355.936,487.512)">
        <path d="M893.899,736.474C895.88,706.805 895.794,665.808 895.97,624.285C896.22,565.183 896.993,505.048 904.246,473.524C904.886,470.742 906.843,468.861 909.038,468.918C911.234,468.975 913.134,470.957 913.691,473.77C920.321,507.256 922.241,594.451 925.958,633.263C927.072,624.306 927.941,613.04 928.805,601.776C930.43,580.601 932.197,559.463 935.02,551.696C935.814,549.512 936.756,547.986 937.663,547.018L939.324,545.701L941.476,545.055L943.567,545.393L945.31,546.482L946.757,548.169C947.218,548.86 947.674,549.726 948.096,550.781C950.651,557.178 952.194,575.258 953.451,593.358C954.157,603.534 954.839,613.7 955.774,621.375C957.533,613.48 959.151,603.057 960.851,593.87C962.551,584.679 964.444,576.642 966.433,572.606C966.92,571.618 967.426,570.795 967.931,570.131L969.369,568.608L970.992,567.611L972.958,567.203L975.287,567.676L977.248,568.906C978.534,570.003 979.801,571.765 980.914,574.173C983.653,580.104 985.763,591.272 987.784,600.049C988.114,601.481 988.561,603.063 988.981,604.451C991.773,600.61 993.95,596.297 996.108,592.857C998.84,588.503 1001.67,585.344 1004.82,584.108C1010.85,581.746 1008.76,581.598 1023.85,588.591C1033.78,588.311 1049.68,587.769 1062.17,587.384C1081.6,586.784 1201.65,582.273 1216.05,583.285C1218.76,583.475 1220.84,586.538 1220.7,590.122C1220.55,593.706 1218.24,596.461 1215.53,596.271C1201.2,595.264 1081.74,599.788 1062.4,600.385C1049.52,600.782 1033.03,601.346 1023.17,601.618C1022.59,601.634 1022.01,601.512 1021.46,601.257C1017.31,599.345 1014.59,597.959 1012.68,597.01C1011.23,596.293 1010.53,595.804 1009.85,595.771C1009.23,595.741 1008.7,596.151 1007.61,596.578C1005.52,597.398 1004.08,600.398 1002.23,603.544C999.422,608.3 996.342,613.779 992.227,618.104L990.59,619.416L988.454,620.114L986.21,619.785L984.407,618.66C982.898,617.334 981.188,614.23 979.873,609.676C977.932,602.955 976.181,592.225 973.903,584.724C973.769,584.28 973.605,583.812 973.43,583.349C973.144,584.243 972.866,585.185 972.653,586.052C971.293,591.594 970.035,598.803 968.772,606.033C966.778,617.449 964.717,628.89 962.439,634.901C961.537,637.282 960.528,639.035 959.558,640.159L957.451,641.906L955.553,642.524L953.799,642.405L952.218,641.682L950.789,640.389L949.427,638.288C948.635,636.711 947.856,634.246 947.23,631.022C946.129,625.35 945.3,616.737 944.576,607.202C943.613,594.496 942.815,580.07 941.608,569.278C940.423,578.581 939.513,590.838 938.573,603.091C936.943,624.343 935.035,645.54 931.991,653.321C931.141,655.494 930.142,657.008 929.169,657.968L927.489,659.202L925.394,659.778L924.106,659.651L922.936,659.179L921.813,658.343L920.666,656.953C920.066,656.036 919.413,654.626 918.862,652.655C918.106,649.952 917.387,645.647 916.755,640.074C913.785,613.871 912.098,556.526 908.663,514.313C906.255,545.375 905.955,585.105 905.788,624.358C905.538,683.413 905.592,741.417 899.983,768.743C899.507,771.06 898.106,772.841 896.339,773.376C894.571,773.911 892.725,773.112 891.537,771.298C889.402,768.038 887.456,762.003 886.049,753.455C883.268,736.558 881.964,708.585 881.44,674.721C880.239,597.024 883.015,487.812 880.107,411.972C879.494,395.975 878.644,381.497 877.439,369.181C875.389,390.85 874.13,420.478 873.282,454.549C870.071,583.438 873.415,774.806 867.317,846.079C867.06,849.083 865.274,851.456 863.006,851.805C860.739,852.154 858.589,850.387 857.818,847.541C843.046,792.976 841.853,621.565 836.288,511.262C834.879,483.34 833.185,459.396 830.88,442.411C830.486,439.513 830.087,436.834 829.673,434.396C828.857,438.55 828.143,443.411 827.47,448.846C824.773,470.64 823.438,501.07 822.548,534.158C820.969,592.788 820.799,659.66 817.231,702.336C815.599,721.86 813.088,736.574 809.713,743.884C808.891,745.665 807.474,746.814 805.903,746.975C804.332,747.135 802.798,746.287 801.779,744.695C797.279,737.658 792.76,718.478 788.817,693.441C780.168,638.518 772.85,554.326 766.353,519.278C765.987,517.307 765.537,515.329 765.092,513.546C762.065,521.55 759.121,533.115 756.092,545.942C749.549,573.646 742.947,607.052 735.921,626.449C733.649,632.723 731.27,637.647 728.901,640.808C726.316,644.255 723.568,645.909 720.888,646.062C718.103,646.221 715.138,644.866 712.239,640.939C701.703,626.664 694.413,614.601 687.819,605.604C679.173,593.808 671.96,587.813 658.523,590.595C656.829,590.946 655.707,591.373 654.967,592.168C653.747,593.483 653.588,595.427 652.955,597.39C650.266,605.73 645.507,617.565 609.386,622.675C578.109,627.099 565.561,621.157 554.362,614.533C544.192,608.517 535.265,601.7 511.812,602.654C467.04,604.475 469.561,614.193 428.736,614.941C371.25,615.994 374.639,611.954 325.3,612.693C278.151,613.399 236.058,622.421 206.156,621.239C177.953,620.124 -42.347,627.941 -92.23,627.069C-94.939,627.022 -97.11,624.07 -97.074,620.482C-97.038,616.893 -94.809,614.018 -92.1,614.066C-42.19,614.938 178.23,607.125 206.449,608.24C236.249,609.418 278.2,600.393 325.189,599.69C374.516,598.951 371.128,602.99 428.6,601.938C469.344,601.191 466.827,591.473 511.511,589.655C532.316,588.809 542.807,593.517 551.948,598.824C564.388,606.045 574.057,614.594 608.343,609.744C629.127,606.804 637.61,602.386 641.504,597.272C643.814,594.238 644.228,591.075 645.125,588.525C646.862,583.586 649.149,579.373 657.007,577.746C671.592,574.727 680.6,579.473 689.718,590.021C697.794,599.364 705.978,613.853 719.26,631.848C719.734,632.491 720.003,633.169 720.456,633.07C720.843,632.986 721.165,632.578 721.541,632.138C722.496,631.017 723.41,629.417 724.341,627.472C725.261,625.548 726.167,623.313 727.069,620.824C733.94,601.855 740.323,569.153 746.721,542.06C751.259,522.844 755.934,506.354 760.587,498.514L762.348,496.347L764.214,495.262L765.61,495.023L766.993,495.222L769.175,496.505L770.69,498.345C771.155,499.074 771.64,500.015 772.11,501.184C773.325,504.199 774.62,509.337 775.888,516.177C782.402,551.316 789.757,635.721 798.429,690.786C800.531,704.134 802.599,715.691 804.783,724.119C805.861,717.775 806.719,709.913 807.472,700.905C811.02,658.474 811.166,591.986 812.735,533.695C813.798,494.238 815.533,458.484 819.314,436.126C821.142,425.317 823.591,417.386 826.41,412.992C827.405,411.441 828.892,410.596 830.426,410.71C831.961,410.824 833.366,411.883 834.224,413.572C836.09,417.246 837.834,423.44 839.281,431.831C842.283,449.248 844.402,477.048 846.084,510.395C850.51,598.116 851.93,724.921 859.907,799.342C862.692,710.97 860.806,561.005 863.468,454.12C864.867,397.972 867.64,353.508 872.777,335.298C873.499,332.741 875.349,331.052 877.41,331.071C879.471,331.09 881.303,332.811 881.998,335.381C886.198,350.913 888.634,377.96 889.913,411.312C892.825,487.266 890.053,596.641 891.257,674.455C891.636,699.013 892.406,720.386 893.899,736.474Z" style="fill:rgb(230,230,230);"/>
    </g>
    <g transform="matrix(1.57193,0,0,1.60172,-937.347,-691.345)">
        <ellipse cx="1344.16" cy="1162.95" rx="669.9" ry="667.424" style="fill:none;stroke:rgb(247,176,70);stroke-width:44.82px;stroke-linecap:round;stroke-miterlimit:1.5;"/>
    </g>
    <g transform="matrix(1.53489,0,0,1.55987,-887.554,-642.672)">
        <ellipse cx="1344.16" cy="1162.95" rx="669.9" ry="667.424" style="fill:none;stroke:rgb(238,142,0);stroke-width:13.39px;stroke-linecap:round;stroke-miterlimit:1.5;"/>
    </g>
    <g transform="matrix(1.55495,0.230444,-0.23481,1.58441,394.516,76.1391)">
        <g transform="matrix(0.87711,-1.01381,1.04504,0.87081,620.197,1151.45)">
            <ellipse cx="280.551" cy="222.056" rx="106.245" ry="107.014" style="stroke:rgb(229,229,229);stroke-width:9.72px;stroke-linecap:round;stroke-miterlimit:1.5;"/>
        </g>
        <g transform="matrix(1.19797,-1.17244,1.2173,1.19797,-488.418,197.986)">
            <ellipse cx="280.551" cy="222.056" rx="106.245" ry="107.014" style="stroke:rgb(228,228,228);stroke-width:7.76px;stroke-linecap:round;stroke-miterlimit:1.5;"/>
        </g>
    </g>
    <g transform="matrix(1.02323,0,0,0.723305,-9.58448,324.43)">
        <path d="M1327.3,1114.38L1327.3,1288.99C1327.3,1337.17 1299.65,1376.3 1265.59,1376.3L349.85,1376.3C315.788,1376.3 288.135,1337.17 288.135,1288.99L288.135,1114.38C288.135,1066.19 315.788,1027.07 349.85,1027.07L1265.59,1027.07C1299.65,1027.07 1327.3,1066.19 1327.3,1114.38Z" style="fill:rgb(38,33,97);"/>
    </g>
    <g transform="matrix(2.33163,0,0,2.62631,-463.391,437.239)">
        <g transform="matrix(141.667,0,0,141.667,770.951,316.415)">
        </g>
        <text x="324.701px" y="316.415px" style="font-family:'AmericanTypewriter-Bold', 'American Typewriter', serif;font-weight:700;font-size:141.667px;fill:rgb(247,174,65);stroke:black;stroke-width:3.79px;stroke-miterlimit:1.5;">gwsnr</text>
    </g>
    <g id="Layer6">
    </g>
</svg>
