<?xml version="1.0" encoding="UTF-8" standalone="no"?>
<!DOCTYPE svg PUBLIC "-//W3C//DTD SVG 1.1//EN" "http://www.w3.org/Graphics/SVG/1.1/DTD/svg11.dtd">
<svg width="100%" height="100%" viewBox="0 0 2363 2363" version="1.1" xmlns="http://www.w3.org/2000/svg" xmlns:xlink="http://www.w3.org/1999/xlink" xml:space="preserve" xmlns:serif="http://www.serif.com/" style="fill-rule:evenodd;clip-rule:evenodd;stroke-linecap:round;stroke-linejoin:round;stroke-miterlimit:1.5;">
    <g transform="matrix(1.57193,0,0,1.60172,-681.023,-720.42)">
        <ellipse cx="1181.1" cy="1181.1" rx="669.9" ry="667.424" style="fill:rgb(255,61,61);"/>
    </g>
    <g transform="matrix(1.57193,0,0,1.60172,-681.023,-720.42)">
        <path d="M1648.55,1575.33C1648.25,1567.55 1642.93,1491.76 1642.93,1491.76L1636.92,1408.21L1633.4,1463.25L1627.2,1519.01L1618.64,1428.03L1615.25,1451.48L1608.66,1441.21L1610.32,1510.05L1604.49,1500.21L1596.68,1532.42L1588.79,1471.62L1586.05,1515.88L1579.29,1509.04L1576.45,1544.33L1565.94,1488.7L1561.53,1497.88L1555.53,1482.48L1548.61,1557.02L1537.87,1409.36L1532.74,1471.77L1530.73,1492.8L1519.43,1475.7L1512.99,1540.49L1504.38,1451.16L1498.13,1495.33L1488.49,1485.73L1489.79,1603.88L1478.5,1534.81L1471.01,1542.15L1471.95,1413.24L1463.34,1474.1L1461.79,1578.56L1455.14,1572.83L1456.52,1675.99L1447.05,1741.21L1435.78,1554.74L1430.58,1193.23L1427.06,1605.37L1411.95,1752.84C1411.95,1752.84 1410.91,1747.94 1409.33,1708.79C1403.35,1561.61 1387.79,1119.97 1393.17,1267.18L1390.72,1431.83L1378.88,1416.26L1379.9,1577.04L1375.91,1664.08L1357.12,1616.63L1352.07,1627.41L1339.86,1394.5L1330.59,1426.34L1320.48,1405.48L1318.38,1496.45L1305.42,1449.48L1299.95,1486.66C1297.29,1472.1 1293.99,1428.31 1291.98,1442.98C1284.52,1497.2 1286.27,1552.3 1283.42,1606.97L1272.22,1481.78L1262.95,1640.46L1254.73,1465.16L1244.09,1523.27L1235.76,1433.79L1229.5,1483.69L1220.76,1465.45L1218.57,1550.21L1208.45,1500.8L1200.01,1542.76L1189.9,1559.69L1184.24,1512.48L1174.54,1530.84L1170.03,1465.21L1163.88,1486.61L1154.73,1469.51L1146.58,1485.12L1140.51,1457.7L1136.11,1476.41L1125.7,1445.84L1114.82,1509.61L1096.67,1454.95L1089.16,1481.66L1070.85,1459.96L1070.14,1582.71L1060.79,1517.6L1052.95,1529.46L1053.42,1468.48L1045.03,1516.83L1033.32,1481.37L1025.1,1543.42L1018.44,1523.04L1009.69,1568.81L1001.19,1470.28L988.884,1487.69L980.195,1444.17L974.352,1480.71L967.816,1543.12L958.828,1517.43L950.326,1538.83L946.393,1470.21L936.768,1552.73L926.056,1481.37L918.266,1509.8L911.187,1494.42L905.7,1629.26L898.621,1501.57L889.767,1508.98L880.352,1464.16L874.804,1512.16L864.949,1500.81L864.568,1524.67L850.887,1497.37C846.173,1496.48 841.459,1495.59 836.746,1494.7L827.712,1437.06L822.063,1484.37L813.971,1470.35L807.741,1500.18L800.931,1459.05L794.241,1575.62L781.141,1484.49L776.433,1563.76L760.149,1463.2L756.263,1573.83L745.947,1529.9L738.435,1539.78L734.489,1484.31L724.314,1532.06L715.981,1484.06L705.605,1528.94L697.653,1498.59L692.826,1558.71L681.689,1522.95L671.954,1545C670.689,1474.66 674.417,1467.18 670.635,1471.67C663.31,1480.36 664.002,1481.78 663.24,1481.19L655.348,1457.15L650.24,1568.02L638.102,1443.05L633.255,1483.15L623.96,1468.56L612.703,1528.49L523.4,1322.44L512.742,1143.38L539.219,986.079L573.666,898.4L592.967,866.785L602.939,899.041L612.03,960.434L641.105,840.419L656.732,881.956L673.853,867.675L673.355,1012.45L694.212,947.436L705.698,993.827L715.597,907.719L727.364,975.789L740.501,848.143L754.945,918.313L771.661,897.708L786.292,948.836L813.095,921.09L826.729,934.065L837.126,869.845L845.905,936.748L858.481,875.492L871.618,849.333L880.241,918.103L882.606,969.535L894.685,943.096L903.588,969.745L916.039,917.333L924.849,887.207L937.799,939.222L955.698,915.139L967.963,954.39L978.641,980.152L989.598,959.734L996.135,997.094L1011.26,948.626L1018.88,964.278L1024.23,833.148L1035.32,932.171L1043.12,950.253L1056.58,839.353L1065.92,949.097L1073.27,940.085L1077.32,977.595L1088.66,853.33L1095.41,925.907L1105.81,905.124L1108.91,949.699L1122.4,904.322L1127.75,916.99L1132.95,832.547L1139.3,957.519L1151.1,914.985L1160.74,946.349L1170.14,857.435L1179.23,882.382L1187.73,869.407L1192.53,937.726L1207.18,903.767L1218.77,893.505L1225.82,953.603L1232.12,888.492L1242.31,897.563L1247.47,874.621L1262.91,958.062L1270.81,884.836L1279.76,970.034L1290.7,973.042L1291.61,942.385L1298.7,914.69L1305.76,965.233L1312.35,941.135L1320.64,951.904L1320.29,892.998L1330.19,907.872L1336.53,820.221L1348.93,899.014L1355.54,991.773L1359.24,1013.71L1366.13,992.374L1371.13,1047.58L1376.36,907.75L1394.37,696.499L1406.1,910.816L1414.31,1138.04L1416.91,865.6L1432.12,614.77L1443.39,717.299L1450.45,1035.63L1463.69,850.392L1471.7,883.432L1479.06,864.052L1481.58,980.534L1489.98,909.595L1500.78,924.52L1510.64,904.937L1518.86,1020.69L1528.2,934.413L1538.14,894.122L1545.09,839.311L1553.03,973.173L1564.04,984.457L1566.87,898.639L1576.42,926.646L1585.28,906.672L1593.1,958.966L1599.79,906.141L1606.28,942.634L1616.28,866.912L1624.89,910.517L1629.79,949.073L1641.2,885.167L1653.31,942.103L1661.32,876.336L1670.07,955.919L1679.02,937.07L1685.23,973.298L1694.3,937.664L1702.79,947.479L1709.41,846.344L1720.19,945.229L1722.86,871.288L1733.12,879.587L1744.59,832.075L1750.53,885.229L1755.7,900.507L1768.91,893.363L1795.21,948.112L1802,940.771L1798.68,966.585L1818.02,947.976L1858.02,1205.14L1806.88,1446.44L1773.82,1478.63L1765.2,1475.28L1752.91,1547.3C1752.91,1547.3 1746.89,1503.43 1743.92,1503.26L1726.23,1511.11L1723.54,1480.29L1716.98,1481.8L1714.73,1461.03L1708.89,1481.11L1700.46,1466.45L1697.69,1483.66L1682.52,1441.8L1677.49,1555.97L1668.45,1533.99L1664.14,1547.43L1658.96,1452.2L1652.06,1462.6C1652.06,1462.6 1648.76,1562.05 1648.55,1575.33Z" style="fill:rgb(38,33,97);"/>
    </g>
    <g transform="matrix(1.57193,0,0,1.60172,196.551,223.056)">
        <path d="M806.132,770.087C806.588,768.726 807.015,767.126 807.423,765.306C810.652,750.909 812.387,723.832 813.481,690.41C816.06,611.628 814.934,497.937 820.182,430.576C821.785,410.01 824.008,393.693 827.056,383.846C828.58,378.923 830.422,375.452 832.341,373.509C833.116,372.724 834.192,372.294 835.307,372.324C836.421,372.355 837.471,372.843 838.201,373.669C839.19,374.79 840.236,376.835 841.081,379.838C842.595,385.219 843.849,394.358 844.852,406.449C850.428,473.697 848.921,634.65 852.115,741.621C853.286,780.827 855.073,812.731 858.106,829.958C858.315,827.706 858.51,825.201 858.693,822.458C862.115,771.157 860.962,638.786 861.677,527.432C862.155,452.876 863.491,387.702 867.543,362.287C868.33,357.353 869.271,353.785 870.256,351.733C870.644,350.924 871.061,350.28 871.471,349.786L872.833,348.553C874.038,347.762 875.587,347.678 876.874,348.333L878.147,349.248L879.251,350.67C879.968,351.881 880.707,354.005 881.31,357.012C884.109,370.966 885.506,407.645 886.259,454.714C888.003,563.675 886.474,728.748 892.246,794.436C892.736,800.011 893.274,804.852 893.873,808.857C894.456,804.622 894.961,799.509 895.407,793.653C900.237,730.192 897.66,581.464 901.05,511.806C901.808,496.223 902.892,484.513 904.377,478.429C904.962,476.031 905.684,474.33 906.377,473.326L907.444,472.12L908.559,471.373C909.55,470.88 910.707,470.817 911.748,471.199L913.362,472.112L914.89,473.807C915.954,475.4 916.974,478.251 917.755,482.198C919.942,493.248 920.964,514.194 921.609,537.786C922.562,572.671 922.734,613.422 924.95,635.909C925.138,637.822 925.34,639.597 925.559,641.218C925.656,640.641 925.752,640.045 925.845,639.433C928.445,622.352 929.218,592.591 931.023,572.35C931.844,563.144 932.944,555.807 934.4,552.167C935.017,550.626 935.768,549.539 936.486,548.858L937.89,547.873L938.821,547.519L939.86,547.345L940.952,547.394L941.972,547.661L942.991,548.177L944.095,549.104C944.864,549.923 945.681,551.31 946.349,553.272C949.308,561.969 950.974,586.081 952.859,606.084C953.594,613.88 954.365,621.026 955.297,626.27C956.797,618.969 957.822,608.241 959.061,598.929C960.121,590.96 961.403,583.962 963.065,580.463C963.783,578.951 964.641,577.891 965.474,577.235L966.982,576.369L968.92,576.001C971.152,575.99 973.501,577.17 975.488,579.86C978.101,583.396 980.505,590.301 982.84,597.211C984.613,602.46 986.363,607.703 988.356,610.99C988.727,611.601 989.378,612.344 989.654,612.649C991.449,612.32 992.889,610.714 994.396,608.797C996.705,605.863 998.808,602 1000.9,598.144C1003.68,592.996 1006.45,587.865 1009.43,584.458C1012.09,581.405 1015.05,579.623 1018.12,579.356C1026.02,578.67 1031.67,583.744 1036.21,589.504C1038.01,591.787 1039.64,594.128 1041.26,595.928C1042.15,596.91 1042.84,597.865 1043.81,597.945C1044.81,598.026 1045.72,597.513 1046.66,596.904C1048.23,595.892 1049.76,594.472 1051.3,593.04C1053.56,590.94 1055.85,588.816 1058.19,587.385C1060.22,586.144 1062.31,585.386 1064.45,585.271C1068.86,585.033 1073.38,586.883 1078.12,589.379C1083.59,592.26 1089.46,596.146 1096.45,595.93C1115.87,595.331 1281.18,592.754 1295.58,593.765C1297.77,593.919 1299.42,595.788 1299.26,597.936C1299.11,600.084 1297.2,601.703 1295.01,601.549C1280.67,600.542 1116.04,603.134 1096.7,603.731C1089.52,603.952 1083.2,600.982 1077.4,597.885C1072.92,595.49 1068.92,592.846 1064.88,593.063C1063.4,593.143 1062.07,594.129 1060.68,595.228C1058.63,596.854 1056.63,598.897 1054.61,600.663C1050.95,603.867 1047.07,606.041 1043.16,605.722C1041.22,605.565 1039.36,604.737 1037.57,603.286C1035.74,601.791 1033.92,599.526 1032.04,597.037C1030.11,594.501 1028.08,591.691 1025.6,589.617C1023.71,588.031 1021.54,586.893 1018.82,587.13C1017.56,587.239 1016.56,588.283 1015.47,589.535C1012.81,592.579 1010.41,597.207 1007.92,601.805C1005.11,606.999 1002.2,612.156 998.976,615.565C996.182,618.524 993.078,620.269 989.761,620.488C987.392,620.645 984.967,619.561 982.881,616.948C980.141,613.516 977.646,606.633 975.292,599.667C973.506,594.38 971.77,589.059 969.833,585.662C969.788,585.585 969.74,585.505 969.69,585.425C969.498,585.959 969.313,586.528 969.177,587.057C968.309,590.446 967.604,594.99 966.946,599.939C965.19,613.141 963.681,629.027 960.976,635.135C960.317,636.621 959.541,637.706 958.777,638.408L957.429,639.355L955.593,639.922L953.727,639.796L952.202,639.111L951.009,638.055C950.649,637.639 950.285,637.11 949.944,636.455C947.859,632.444 946.24,620.584 944.941,606.802C943.461,591.098 942.186,572.784 940.234,561.836C939.741,564.998 939.322,568.801 938.945,573.03C936.859,596.424 936.077,632.39 932.406,647.42C931.615,650.66 930.619,653.074 929.579,654.513L928.201,655.99L926.871,656.82C925.726,657.342 924.396,657.299 923.288,656.705L921.882,655.641C921.45,655.201 921.016,654.629 920.616,653.906C919.691,652.233 918.826,649.337 918.156,645.4C914.868,626.076 914.758,578.175 913.659,537.996C913.114,518.049 912.334,500.037 910.749,488.553C910.027,494.646 909.456,502.665 908.993,512.178C905.6,581.888 908.17,730.726 903.337,794.234C902.466,805.672 901.334,814.417 899.923,819.568C899.122,822.491 898.107,824.478 897.149,825.557C895.859,827.012 893.679,827.323 892.02,826.29C890.793,825.526 889.316,823.7 888.263,820.517C886.694,815.776 885.37,807.022 884.323,795.106C878.542,729.313 880.055,563.973 878.308,454.837C877.695,416.551 876.689,385.219 874.807,367.639C874.538,369.745 874.283,372.054 874.039,374.557C871.085,404.901 870.044,462.621 869.628,527.481C868.913,639.009 870.055,771.586 866.628,822.968C866.006,832.297 865.207,839.042 864.258,842.642C863.528,845.412 862.337,846.946 861.483,847.559C860.199,848.481 858.479,848.563 857.11,847.768C855.376,846.761 853.333,843.884 851.932,838.876C849.543,830.338 847.735,814.349 846.4,793.248C840.402,698.473 843.3,498.815 837.492,414.581C836.676,402.744 835.695,393.223 834.479,386.652C834.147,387.805 833.822,389.059 833.498,390.405C831.169,400.069 829.44,414.112 828.111,431.17C822.87,498.443 824.005,611.983 821.429,690.66C820.314,724.721 818.48,752.311 815.189,766.984C814.252,771.159 813.167,774.376 811.997,776.539C810.823,778.711 809.426,780.047 808.079,780.737C806.886,781.348 805.459,781.325 804.287,780.677C802.985,779.957 801.653,778.665 800.483,776.673C799.255,774.583 798.091,771.543 797.052,767.637C793.405,753.936 790.927,728.61 789.072,697.551C784.795,625.91 783.69,523.434 778.021,464.207C776.587,449.232 774.875,437.067 772.72,428.955C772.204,427.014 771.669,425.322 771.101,423.902C770.958,424.187 770.815,424.485 770.67,424.795C768.764,428.885 767.225,434.882 765.91,442.378C760.535,473.016 759.334,527.65 757.975,582.385C756.605,637.585 755.074,692.885 749.119,724.195C747.514,732.63 745.564,739.392 743.266,744.074C741.397,747.881 739.19,750.455 736.876,751.839C735.951,752.392 734.836,752.551 733.788,752.279C728.145,750.812 723.155,745.317 719.392,736.142C711.929,717.946 708.14,684.335 705.493,646.508C701.591,590.73 700.042,525.654 691.761,488.532C689.736,479.455 687.344,472.117 684.331,467.156C683.025,465.006 681.664,463.337 680.098,462.355C677.296,463.28 674.853,465.277 672.624,468.044C669.64,471.748 667.101,476.772 664.848,482.783C653.627,512.719 649.915,566.033 643.698,610.622C640.051,636.771 635.506,659.98 628.337,674.144C622.772,685.14 615.419,690.954 606.4,690.449C593.012,689.698 583.314,681.623 576.193,668.842C566.436,651.328 561.538,624.628 557.229,598.148C553.062,572.546 549.451,547.164 541.926,531.182C537.634,522.066 532.229,516.102 523.926,516.44C516.183,516.755 510.212,521.535 505.106,528.648C496.454,540.702 490.434,559.255 484.513,577.731C478.336,597.003 472.271,616.199 463.97,628.575C457.716,637.899 450.113,643.504 440.711,643.676C409.865,644.241 400.059,621.104 391.89,597.379C388.913,588.736 386.117,580.078 382.265,572.834C377.063,563.051 369.87,555.957 356.846,556.152C334.926,556.48 325.724,572.568 316.216,588.384C305.329,606.493 294.143,624.359 269.227,625.433C250.664,626.234 240.123,616.89 230.3,606.963C221.913,598.488 214.234,589.403 200.457,588.858C184.657,588.234 176.94,594.551 169.606,598.995C163.557,602.66 157.708,605.228 149.341,603.848C83.749,593.034 14.101,600.158 -40.409,602.175C-42.602,602.256 -44.45,600.575 -44.532,598.423C-44.615,596.27 -42.902,594.457 -40.709,594.376C14.266,592.343 84.507,585.246 150.659,596.152C158.584,597.459 163.386,593.626 169.392,589.886C176.793,585.279 185.567,580.459 200.777,581.06C216.852,581.696 226.219,591.638 236.004,601.526C244.352,609.963 253.103,618.317 268.878,617.637C290.693,616.696 299.835,600.274 309.367,584.418C320.277,566.271 331.573,548.725 356.724,548.348C370.652,548.14 379.493,554.257 385.911,563.577C391.774,572.091 395.497,583.479 399.423,594.881C406.478,615.369 413.925,636.361 440.562,635.873C447.476,635.746 452.729,631.14 457.328,624.285C465.302,612.395 470.993,593.902 476.927,575.389C483.116,556.08 489.562,536.752 498.605,524.153C505.298,514.83 513.447,509.056 523.597,508.643C532.924,508.263 540.09,512.957 545.617,521.491C552.835,532.636 557.219,550.845 560.84,571.289C566.062,600.765 569.828,635.012 579.762,658.114C585.771,672.088 593.908,681.931 606.853,682.657C613.032,683.004 617.403,678.205 621.215,670.672C628.107,657.055 632.314,634.703 635.819,609.564C642.117,564.397 646.019,510.413 657.384,480.089C662.825,465.574 670.312,456.326 679.723,454.38C680.504,454.218 681.316,454.291 682.054,454.589C685.421,455.946 688.515,458.804 691.162,463.16C694.508,468.669 697.28,476.781 699.529,486.863C707.869,524.253 709.496,589.793 713.427,645.973C715.642,677.642 718.577,706.299 723.971,725.031C725.667,730.921 727.585,735.784 729.847,739.354C731.161,741.426 732.527,743.041 734.084,743.988C734.797,743.145 735.447,742.022 736.102,740.686C738.172,736.47 739.857,730.36 741.302,722.763C747.205,691.728 748.668,636.91 750.026,582.195C751.395,527.015 752.655,471.94 758.074,441.054C759.534,432.729 761.322,426.091 763.439,421.549C765.204,417.762 767.328,415.263 769.53,413.976C770.947,413.147 772.74,413.264 774.034,414.27C775.686,415.554 777.373,418.025 778.77,421.74C780.431,426.158 781.902,432.609 783.176,440.715C791.34,492.657 792.113,615.054 797.011,697.095C798.825,727.478 801.178,752.261 804.745,765.665C805.191,767.337 805.649,768.817 806.132,770.087Z" style="fill:white;"/>
    </g>
    <g transform="matrix(1.57193,0,0,1.60172,-937.347,-691.345)">
        <ellipse cx="1344.16" cy="1162.95" rx="669.9" ry="667.424" style="fill:none;stroke:rgb(247,174,65);stroke-width:44.82px;"/>
    </g>
    <g transform="matrix(2.33163,0,0,2.62631,-473.573,427.86)">
        <g transform="matrix(141.667,0,0,141.667,770.951,316.415)">
        </g>
        <text x="324.701px" y="316.415px" style="font-family:'AmericanTypewriter-Bold', 'American Typewriter', serif;font-weight:700;font-size:141.667px;fill:rgb(247,174,65);stroke:black;stroke-width:3.79px;stroke-linecap:butt;">gwsnr</text>
    </g>
    <g id="Layer1" transform="matrix(1,0,0,1,570.477,592.044)">
        <g transform="matrix(1.57193,0,0,1.60172,-354.749,-364.176)">
            <g transform="matrix(0.705916,0,0,0.700846,839.669,952.048)">
                <ellipse cx="280.551" cy="222.056" rx="106.245" ry="107.014" style="stroke:white;stroke-width:7.47px;"/>
            </g>
            <g transform="matrix(1.22848,0,0,1.22848,-141.501,-219.881)">
                <ellipse cx="280.551" cy="222.056" rx="106.245" ry="107.014" style="stroke:white;stroke-width:4.27px;"/>
            </g>
        </g>
        <g id="Layer2">
        </g>
    </g>
</svg>
